# xmcd
#
# Track frame offsets:
#	150
#	13625
#	27932
#	44610
#	60645
#	79027
#	92630
#	113060
#	129462
#	146505
#	163130
#	180355
#	193792
#	213092
#	227142
#
# Disc length: 3279 seconds
#
# Revision: 1
# Processed by: cddbd v1.5.1PL2 Copyright (c) Steve Scherf et al.
# Submitted via: audiograbber 1.83.01
#
DISCID=c40ccd0f
DTITLE=Music Maestro - MM6223
DYEAR=1900
DGENRE=Karaoke
TTITLE0=Wynonna - When Love Starts Talkin'
TTITLE1=McCready, Mindy - What If I Do
TTITLE2=Sons Of The Desert - Hand Of Fate
TTITLE3=Montgomery, John Michael - Angel In My Eyes
TTITLE4=Keith, Toby and Sting - I'm So Happy I Can't Stop Crying
TTITLE5=River Road - Nickajack
TTITLE6=Jackson, Alan - Between The Devil And Me
TTITLE7=Buffalo Club - Heart Hold On
TTITLE8=Alabama - Of Course I'm Alright
TTITLE9=Rimes, LeAnn - On The Side Of Angels
TTITLE10=Big House - Love Ain't Easy
TTITLE11=Ricochet - Blink Of An Eye
TTITLE12=Blackhawk - Postmarked Birmingham
TTITLE13=Brooks and Dunn - He's Got You
TTITLE14=Loveless, Patty - You Don't Seem To Miss Me
EXTD=As Listed In KJ Pro
EXTT0=
EXTT1=
EXTT2=
EXTT3=
EXTT4=
EXTT5=
EXTT6=
EXTT7=
EXTT8=
EXTT9=
EXTT10=
EXTT11=
EXTT12=
EXTT13=
EXTT14=
PLAYORDER=
